<?xml version="1.0" encoding="utf-8"?>
<!-- Svg Vector Icons : http://www.sfont.cn -->
<!DOCTYPE svg PUBLIC "-//W3C//DTD SVG 1.1//EN" "http://www.w3.org/Graphics/SVG/1.1/DTD/svg11.dtd">
<svg version="1.1" xmlns="http://www.w3.org/2000/svg" xmlns:xlink="http://www.w3.org/1999/xlink" x="0px" y="0px" viewBox="0 0 1000 1000" enable-background="new 0 0 1000 1000" xml:space="preserve">
<metadata> Svg Vector Icons : http://www.sfont.cn </metadata>
<g><g transform="translate(0.000000,511.000000) scale(0.100000,-0.100000)"><path d="M1820.2,4981.3c-36.5-15.6-93.8-52.1-125.1-83.4c-140.8-130.3-135.5-62.6-135.5-1980.8V1134.3l59.9-86c31.3-46.9,91.2-112.1,130.3-140.7c73-54.7,75.6-54.7,3179.8-62.5c3495.2-7.8,3265.8-20.9,3401.3,185l70.4,106.9v1785.4c0,1746.3,0,1790.6-52.1,1879.2c-31.3,54.7-101.7,114.7-169.4,151.2l-114.7,57.3l-3091.2-2.6C2987.9,5007.4,1861.9,4997,1820.2,4981.3z"/><path d="M1517.9,571.3c-99-86-96.4-211.1,0-297.1l70.4-59.9l3417,5.2l3414.4,7.8l49.5,62.5c67.8,83.4,62.6,200.7-15.6,276.3l-62.6,65.2H4989.6H1588.2L1517.9,571.3z"/><path d="M4765.4-515.5v-521.3H2888.8H1012.2v-521.3v-521.3h195.5h195.5v312.8v312.8h1681.1h1681.1v-521.3v-521.3h208.5h208.5v521.3v521.3h1681.1h1681.1v-312.8v-312.8h208.5h208.5v521.3v521.3H7072.1H5182.4v521.3V5.7h-208.5h-208.5V-515.5z"/><path d="M412.8-3330.4V-4373h1042.6h1042.5v1042.6v1042.6H1455.3H412.8V-3330.4z"/><path d="M7502.1-3330.4V-4373h1042.6h1042.6v1042.6v1042.6H8544.7H7502.1V-3330.4z"/><path d="M3931.4-3747.4V-4790h1042.5h1042.6v1042.6v1042.5H4973.9H3931.4V-3747.4z"/></g></g>
</svg>